<svg width="15" height="15" viewBox="0 0 15 15" fill="none" xmlns="http://www.w3.org/2000/svg">
<path d="M14.0969 0.728669C13.6828 0.314562 13.0138 0.314562 12.5997 0.728669L7.40747 5.91032L2.21521 0.718051C1.8011 0.303944 1.13216 0.303944 0.718051 0.718051C0.303944 1.13216 0.303944 1.8011 0.718051 2.21521L5.91032 7.40747L0.718051 12.5997C0.303944 13.0138 0.303944 13.6828 0.718051 14.0969C1.13216 14.511 1.8011 14.511 2.21521 14.0969L7.40747 8.90463L12.5997 14.0969C13.0138 14.511 13.6828 14.511 14.0969 14.0969C14.511 13.6828 14.511 13.0138 14.0969 12.5997L8.90463 7.40747L14.0969 2.21521C14.5004 1.81172 14.5004 1.13216 14.0969 0.728669Z" fill="#fff"/>
</svg>
