<svg xmlns="http://www.w3.org/2000/svg" width="20" height="20" viewBox="0 0 20 20">
  <g id="ic_home_dark_gray" transform="translate(-1038 -343)">
    <rect id="frame_20" width="20" height="20" transform="translate(1038 343)" fill="none"/>
    <path id="item1" d="M9.505.495a.7.7,0,0,1,.99,0l8.31,8.31A.7.7,0,0,1,18.31,10H1.69a.7.7,0,0,1-.495-1.195Z" transform="translate(1038 343.5)" fill="#555"/>
    <path id="item2_3" data-name="item2,3" d="M-7046-6932h-3.5v-5.3a1,1,0,0,0-1-1h-3a1,1,0,0,0-1,1v5.3h4.751l-8.25,0a1,1,0,0,1-1-1v-8a1,1,0,0,1,1-1h12a1,1,0,0,1,1,1v8A1,1,0,0,1-7046-6932Z" transform="translate(8100 7294.5)" fill="#555"/>
    <g id="linle1_2" data-name="linle1,2" transform="translate(0 -0.5)">
      <line id="line1" x1="8.5" y2="8" transform="translate(1039.5 345)" fill="none" stroke="#555" stroke-linecap="round" stroke-width="2"/>
      <line id="line1-2" data-name="line1" x2="8.5" y2="8" transform="translate(1048 345)" fill="none" stroke="#555" stroke-linecap="round" stroke-width="2"/>
    </g>
  </g>
</svg>
